ISO-10303-21;
HEADER;
/* Generated by software containing ST-Developer
 * from STEP Tools, Inc. (www.steptools.com) 
 */

FILE_DESCRIPTION(
/* description */ (''),
/* implementation_level */ '2;1');

FILE_NAME(
/* name */ 'Tesla A2 FAN1.step',
/* time_stamp */ '2026-09-30T20:55:51+03:00',
/* author */ (''),
/* organization */ (''),
/* preprocessor_version */ 'ST-DEVELOPER v20.2',
/* originating_system */ 'Autodesk Translation Framework v15.15.0.0',
/* authorisation */ '');

FILE_SCHEMA (('AUTOMOTIVE_DESIGN { 1 0 10303 214 3 1 1 }'));
ENDSEC;

DATA;
#10=MECHANICAL_DESIGN_GEOMETRIC_PRESENTATION_REPRESENTATION('',(#13),#1196);
#11=SHAPE_REPRESENTATION_RELATIONSHIP('SRR','None',#1203,#12);
#12=ADVANCED_BREP_SHAPE_REPRESENTATION('',(#14),#1195);
#13=STYLED_ITEM('',(#1212),#14);
#14=MANIFOLD_SOLID_BREP('Body1',#692);
#15=TOROIDAL_SURFACE('',#736,20.3,0.3);
#16=TOROIDAL_SURFACE('',#745,21.,1.);
#17=CYLINDRICAL_SURFACE('',#718,2.5);
#18=CYLINDRICAL_SURFACE('',#721,1.);
#19=CYLINDRICAL_SURFACE('',#741,20.);
#20=CYLINDRICAL_SURFACE('',#758,2.);
#21=CYLINDRICAL_SURFACE('',#760,2.);
#22=CYLINDRICAL_SURFACE('',#762,2.);
#23=CYLINDRICAL_SURFACE('',#763,2.);
#24=CYLINDRICAL_SURFACE('',#764,1.);
#25=CYLINDRICAL_SURFACE('',#766,1.);
#26=CYLINDRICAL_SURFACE('',#768,1.);
#27=CYLINDRICAL_SURFACE('',#769,1.);
#28=CYLINDRICAL_SURFACE('',#770,1.);
#29=CYLINDRICAL_SURFACE('',#771,1.);
#30=CYLINDRICAL_SURFACE('',#773,1.);
#31=CYLINDRICAL_SURFACE('',#776,1.4);
#32=CYLINDRICAL_SURFACE('',#778,2.5);
#33=CYLINDRICAL_SURFACE('',#779,1.4);
#34=FACE_BOUND('',#78,.T.);
#35=FACE_BOUND('',#80,.T.);
#36=FACE_BOUND('',#85,.T.);
#37=FACE_BOUND('',#86,.T.);
#38=FACE_BOUND('',#87,.T.);
#39=FACE_BOUND('',#91,.T.);
#40=FACE_BOUND('',#94,.T.);
#41=FACE_BOUND('',#96,.T.);
#42=FACE_OUTER_BOUND('',#77,.T.);
#43=FACE_OUTER_BOUND('',#79,.T.);
#44=FACE_OUTER_BOUND('',#81,.T.);
#45=FACE_OUTER_BOUND('',#82,.T.);
#46=FACE_OUTER_BOUND('',#83,.T.);
#47=FACE_OUTER_BOUND('',#84,.T.);
#48=FACE_OUTER_BOUND('',#88,.T.);
#49=FACE_OUTER_BOUND('',#89,.T.);
#50=FACE_OUTER_BOUND('',#90,.T.);
#51=FACE_OUTER_BOUND('',#92,.T.);
#52=FACE_OUTER_BOUND('',#93,.T.);
#53=FACE_OUTER_BOUND('',#95,.T.);
#54=FACE_OUTER_BOUND('',#97,.T.);
#55=FACE_OUTER_BOUND('',#98,.T.);
#56=FACE_OUTER_BOUND('',#99,.T.);
#57=FACE_OUTER_BOUND('',#100,.T.);
#58=FACE_OUTER_BOUND('',#101,.T.);
#59=FACE_OUTER_BOUND('',#102,.T.);
#60=FACE_OUTER_BOUND('',#103,.T.);
#61=FACE_OUTER_BOUND('',#104,.T.);
#62=FACE_OUTER_BOUND('',#105,.T.);
#63=FACE_OUTER_BOUND('',#106,.T.);
#64=FACE_OUTER_BOUND('',#107,.T.);
#65=FACE_OUTER_BOUND('',#108,.T.);
#66=FACE_OUTER_BOUND('',#109,.T.);
#67=FACE_OUTER_BOUND('',#110,.T.);
#68=FACE_OUTER_BOUND('',#111,.T.);
#69=FACE_OUTER_BOUND('',#112,.T.);
#70=FACE_OUTER_BOUND('',#113,.T.);
#71=FACE_OUTER_BOUND('',#114,.T.);
#72=FACE_OUTER_BOUND('',#115,.T.);
#73=FACE_OUTER_BOUND('',#116,.T.);
#74=FACE_OUTER_BOUND('',#117,.T.);
#75=FACE_OUTER_BOUND('',#118,.T.);
#76=FACE_OUTER_BOUND('',#119,.T.);
#77=EDGE_LOOP('',(#443,#444,#445,#446,#447,#448,#449,#450));
#78=EDGE_LOOP('',(#451));
#79=EDGE_LOOP('',(#452,#453,#454,#455,#456,#457,#458,#459));
#80=EDGE_LOOP('',(#460));
#81=EDGE_LOOP('',(#461,#462,#463,#464));
#82=EDGE_LOOP('',(#465,#466,#467,#468));
#83=EDGE_LOOP('',(#469,#470,#471,#472));
#84=EDGE_LOOP('',(#473,#474,#475,#476,#477,#478,#479,#480));
#85=EDGE_LOOP('',(#481));
#86=EDGE_LOOP('',(#482,#483,#484,#485,#486,#487,#488,#489,#490,#491,#492,
#493,#494,#495,#496,#497));
#87=EDGE_LOOP('',(#498));
#88=EDGE_LOOP('',(#499,#500,#501,#502,#503));
#89=EDGE_LOOP('',(#504,#505,#506,#507,#508,#509));
#90=EDGE_LOOP('',(#510,#511,#512,#513));
#91=EDGE_LOOP('',(#514));
#92=EDGE_LOOP('',(#515,#516,#517,#518,#519));
#93=EDGE_LOOP('',(#520,#521,#522,#523));
#94=EDGE_LOOP('',(#524));
#95=EDGE_LOOP('',(#525,#526,#527,#528,#529,#530,#531,#532));
#96=EDGE_LOOP('',(#533,#534,#535,#536,#537,#538,#539,#540));
#97=EDGE_LOOP('',(#541,#542,#543,#544));
#98=EDGE_LOOP('',(#545,#546,#547,#548));
#99=EDGE_LOOP('',(#549,#550,#551,#552));
#100=EDGE_LOOP('',(#553,#554,#555,#556));
#101=EDGE_LOOP('',(#557,#558,#559,#560));
#102=EDGE_LOOP('',(#561,#562,#563,#564));
#103=EDGE_LOOP('',(#565,#566,#567,#568));
#104=EDGE_LOOP('',(#569,#570,#571,#572,#573,#574));
#105=EDGE_LOOP('',(#575,#576,#577,#578));
#106=EDGE_LOOP('',(#579,#580,#581,#582,#583,#584,#585,#586));
#107=EDGE_LOOP('',(#587,#588,#589,#590));
#108=EDGE_LOOP('',(#591,#592,#593,#594));
#109=EDGE_LOOP('',(#595,#596,#597,#598));
#110=EDGE_LOOP('',(#599,#600,#601,#602));
#111=EDGE_LOOP('',(#603,#604,#605,#606));
#112=EDGE_LOOP('',(#607,#608,#609,#610));
#113=EDGE_LOOP('',(#611,#612,#613,#614));
#114=EDGE_LOOP('',(#615,#616,#617,#618,#619,#620));
#115=EDGE_LOOP('',(#621,#622,#623,#624));
#116=EDGE_LOOP('',(#625,#626,#627,#628));
#117=EDGE_LOOP('',(#629,#630,#631,#632));
#118=EDGE_LOOP('',(#633,#634,#635,#636));
#119=EDGE_LOOP('',(#637,#638,#639,#640));
#120=LINE('',#998,#179);
#121=LINE('',#1002,#180);
#122=LINE('',#1006,#181);
#123=LINE('',#1009,#182);
#124=LINE('',#1017,#183);
#125=LINE('',#1021,#184);
#126=LINE('',#1025,#185);
#127=LINE('',#1028,#186);
#128=LINE('',#1033,#187);
#129=LINE('',#1036,#188);
#130=LINE('',#1039,#189);
#131=LINE('',#1040,#190);
#132=LINE('',#1043,#191);
#133=LINE('',#1050,#192);
#134=LINE('',#1054,#193);
#135=LINE('',#1058,#194);
#136=LINE('',#1061,#195);
#137=LINE('',#1065,#196);
#138=LINE('',#1069,#197);
#139=LINE('',#1073,#198);
#140=LINE('',#1077,#199);
#141=LINE('',#1081,#200);
#142=LINE('',#1085,#201);
#143=LINE('',#1088,#202);
#144=LINE('',#1101,#203);
#145=LINE('',#1107,#204);
#146=LINE('',#1109,#205);
#147=LINE('',#1110,#206);
#148=LINE('',#1117,#207);
#149=LINE('',#1119,#208);
#150=LINE('',#1120,#209);
#151=LINE('',#1126,#210);
#152=LINE('',#1130,#211);
#153=LINE('',#1134,#212);
#154=LINE('',#1137,#213);
#155=LINE('',#1141,#214);
#156=LINE('',#1145,#215);
#157=LINE('',#1149,#216);
#158=LINE('',#1150,#217);
#159=LINE('',#1152,#218);
#160=LINE('',#1154,#219);
#161=LINE('',#1155,#220);
#162=LINE('',#1157,#221);
#163=LINE('',#1161,#222);
#164=LINE('',#1162,#223);
#165=LINE('',#1164,#224);
#166=LINE('',#1165,#225);
#167=LINE('',#1167,#226);
#168=LINE('',#1168,#227);
#169=LINE('',#1170,#228);
#170=LINE('',#1172,#229);
#171=LINE('',#1175,#230);
#172=LINE('',#1177,#231);
#173=LINE('',#1178,#232);
#174=LINE('',#1181,#233);
#175=LINE('',#1183,#234);
#176=LINE('',#1186,#235);
#177=LINE('',#1188,#236);
#178=LINE('',#1191,#237);
#179=VECTOR('',#787,10.);
#180=VECTOR('',#790,10.);
#181=VECTOR('',#793,10.);
#182=VECTOR('',#796,10.);
#183=VECTOR('',#803,10.);
#184=VECTOR('',#806,10.);
#185=VECTOR('',#809,10.);
#186=VECTOR('',#812,10.);
#187=VECTOR('',#817,10.);
#188=VECTOR('',#820,10.);
#189=VECTOR('',#823,10.);
#190=VECTOR('',#824,10.);
#191=VECTOR('',#827,10.);
#192=VECTOR('',#834,10.);
#193=VECTOR('',#837,10.);
#194=VECTOR('',#840,10.);
#195=VECTOR('',#843,10.);
#196=VECTOR('',#846,10.);
#197=VECTOR('',#849,10.);
#198=VECTOR('',#852,10.);
#199=VECTOR('',#855,10.);
#200=VECTOR('',#858,10.);
#201=VECTOR('',#861,10.);
#202=VECTOR('',#864,10.);
#203=VECTOR('',#879,20.);
#204=VECTOR('',#886,10.);
#205=VECTOR('',#887,10.);
#206=VECTOR('',#888,10.);
#207=VECTOR('',#897,10.);
#208=VECTOR('',#898,10.);
#209=VECTOR('',#899,10.);
#210=VECTOR('',#904,10.);
#211=VECTOR('',#907,10.);
#212=VECTOR('',#912,10.);
#213=VECTOR('',#913,10.);
#214=VECTOR('',#916,10.);
#215=VECTOR('',#919,10.);
#216=VECTOR('',#926,10.);
#217=VECTOR('',#927,10.);
#218=VECTOR('',#930,10.);
#219=VECTOR('',#933,10.);
#220=VECTOR('',#934,10.);
#221=VECTOR('',#937,10.);
#222=VECTOR('',#944,10.);
#223=VECTOR('',#945,10.);
#224=VECTOR('',#948,10.);
#225=VECTOR('',#949,10.);
#226=VECTOR('',#952,10.);
#227=VECTOR('',#953,10.);
#228=VECTOR('',#956,10.);
#229=VECTOR('',#959,10.);
#230=VECTOR('',#964,10.);
#231=VECTOR('',#967,10.);
#232=VECTOR('',#968,10.);
#233=VECTOR('',#973,10.);
#234=VECTOR('',#976,10.);
#235=VECTOR('',#981,1.4);
#236=VECTOR('',#984,10.);
#237=VECTOR('',#989,1.4);
#238=CIRCLE('',#707,1.);
#239=CIRCLE('',#708,1.);
#240=CIRCLE('',#709,2.5);
#241=CIRCLE('',#710,1.);
#242=CIRCLE('',#711,1.4);
#243=CIRCLE('',#713,1.);
#244=CIRCLE('',#714,1.);
#245=CIRCLE('',#715,2.5);
#246=CIRCLE('',#716,1.);
#247=CIRCLE('',#717,1.4);
#248=CIRCLE('',#719,2.5);
#249=CIRCLE('',#722,1.);
#250=CIRCLE('',#724,2.);
#251=CIRCLE('',#725,2.);
#252=CIRCLE('',#726,2.);
#253=CIRCLE('',#727,2.);
#254=CIRCLE('',#728,1.4);
#255=CIRCLE('',#729,1.);
#256=CIRCLE('',#730,2.5);
#257=CIRCLE('',#731,1.);
#258=CIRCLE('',#732,1.);
#259=CIRCLE('',#733,1.);
#260=CIRCLE('',#734,1.);
#261=CIRCLE('',#735,1.4);
#262=CIRCLE('',#737,20.3);
#263=CIRCLE('',#738,0.3);
#264=CIRCLE('',#739,20.);
#265=CIRCLE('',#740,20.);
#266=CIRCLE('',#742,20.);
#267=CIRCLE('',#743,20.);
#268=CIRCLE('',#746,21.);
#269=CIRCLE('',#747,1.);
#270=CIRCLE('',#750,2.);
#271=CIRCLE('',#751,2.);
#272=CIRCLE('',#752,2.);
#273=CIRCLE('',#753,2.);
#274=CIRCLE('',#754,1.);
#275=CIRCLE('',#755,1.);
#276=CIRCLE('',#756,1.);
#277=CIRCLE('',#757,1.);
#278=VERTEX_POINT('',#994);
#279=VERTEX_POINT('',#995);
#280=VERTEX_POINT('',#997);
#281=VERTEX_POINT('',#999);
#282=VERTEX_POINT('',#1001);
#283=VERTEX_POINT('',#1003);
#284=VERTEX_POINT('',#1005);
#285=VERTEX_POINT('',#1007);
#286=VERTEX_POINT('',#1010);
#287=VERTEX_POINT('',#1013);
#288=VERTEX_POINT('',#1014);
#289=VERTEX_POINT('',#1016);
#290=VERTEX_POINT('',#1018);
#291=VERTEX_POINT('',#1020);
#292=VERTEX_POINT('',#1022);
#293=VERTEX_POINT('',#1024);
#294=VERTEX_POINT('',#1026);
#295=VERTEX_POINT('',#1029);
#296=VERTEX_POINT('',#1032);
#297=VERTEX_POINT('',#1034);
#298=VERTEX_POINT('',#1038);
#299=VERTEX_POINT('',#1042);
#300=VERTEX_POINT('',#1046);
#301=VERTEX_POINT('',#1047);
#302=VERTEX_POINT('',#1049);
#303=VERTEX_POINT('',#1051);
#304=VERTEX_POINT('',#1053);
#305=VERTEX_POINT('',#1055);
#306=VERTEX_POINT('',#1057);
#307=VERTEX_POINT('',#1059);
#308=VERTEX_POINT('',#1062);
#309=VERTEX_POINT('',#1064);
#310=VERTEX_POINT('',#1066);
#311=VERTEX_POINT('',#1068);
#312=VERTEX_POINT('',#1070);
#313=VERTEX_POINT('',#1072);
#314=VERTEX_POINT('',#1074);
#315=VERTEX_POINT('',#1076);
#316=VERTEX_POINT('',#1078);
#317=VERTEX_POINT('',#1080);
#318=VERTEX_POINT('',#1082);
#319=VERTEX_POINT('',#1084);
#320=VERTEX_POINT('',#1086);
#321=VERTEX_POINT('',#1089);
#322=VERTEX_POINT('',#1092);
#323=VERTEX_POINT('',#1094);
#324=VERTEX_POINT('',#1096);
#325=VERTEX_POINT('',#1100);
#326=VERTEX_POINT('',#1102);
#327=VERTEX_POINT('',#1106);
#328=VERTEX_POINT('',#1108);
#329=VERTEX_POINT('',#1112);
#330=VERTEX_POINT('',#1116);
#331=VERTEX_POINT('',#1118);
#332=VERTEX_POINT('',#1122);
#333=VERTEX_POINT('',#1123);
#334=VERTEX_POINT('',#1125);
#335=VERTEX_POINT('',#1127);
#336=VERTEX_POINT('',#1129);
#337=VERTEX_POINT('',#1132);
#338=VERTEX_POINT('',#1135);
#339=VERTEX_POINT('',#1136);
#340=VERTEX_POINT('',#1138);
#341=VERTEX_POINT('',#1140);
#342=VERTEX_POINT('',#1142);
#343=VERTEX_POINT('',#1144);
#344=EDGE_CURVE('',#278,#279,#238,.T.);
#345=EDGE_CURVE('',#280,#278,#120,.T.);
#346=EDGE_CURVE('',#281,#280,#239,.T.);
#347=EDGE_CURVE('',#282,#281,#121,.T.);
#348=EDGE_CURVE('',#283,#282,#240,.T.);
#349=EDGE_CURVE('',#284,#283,#122,.T.);
#350=EDGE_CURVE('',#285,#284,#241,.T.);
#351=EDGE_CURVE('',#279,#285,#123,.T.);
#352=EDGE_CURVE('',#286,#286,#242,.T.);
#353=EDGE_CURVE('',#287,#288,#243,.T.);
#354=EDGE_CURVE('',#289,#287,#124,.T.);
#355=EDGE_CURVE('',#290,#289,#244,.T.);
#356=EDGE_CURVE('',#291,#290,#125,.T.);
#357=EDGE_CURVE('',#292,#291,#245,.T.);
#358=EDGE_CURVE('',#293,#292,#126,.T.);
#359=EDGE_CURVE('',#294,#293,#246,.T.);
#360=EDGE_CURVE('',#288,#294,#127,.T.);
#361=EDGE_CURVE('',#295,#295,#247,.T.);
#362=EDGE_CURVE('',#291,#296,#128,.T.);
#363=EDGE_CURVE('',#297,#296,#248,.T.);
#364=EDGE_CURVE('',#292,#297,#129,.T.);
#365=EDGE_CURVE('',#298,#290,#130,.T.);
#366=EDGE_CURVE('',#296,#298,#131,.T.);
#367=EDGE_CURVE('',#289,#299,#132,.T.);
#368=EDGE_CURVE('',#298,#299,#249,.T.);
#369=EDGE_CURVE('',#300,#301,#250,.T.);
#370=EDGE_CURVE('',#301,#302,#133,.T.);
#371=EDGE_CURVE('',#302,#303,#251,.T.);
#372=EDGE_CURVE('',#303,#304,#134,.T.);
#373=EDGE_CURVE('',#304,#305,#252,.T.);
#374=EDGE_CURVE('',#305,#306,#135,.T.);
#375=EDGE_CURVE('',#306,#307,#253,.T.);
#376=EDGE_CURVE('',#307,#300,#136,.T.);
#377=EDGE_CURVE('',#308,#308,#254,.T.);
#378=EDGE_CURVE('',#299,#309,#137,.T.);
#379=EDGE_CURVE('',#309,#310,#255,.T.);
#380=EDGE_CURVE('',#310,#311,#138,.T.);
#381=EDGE_CURVE('',#311,#312,#256,.T.);
#382=EDGE_CURVE('',#312,#313,#139,.T.);
#383=EDGE_CURVE('',#313,#314,#257,.T.);
#384=EDGE_CURVE('',#314,#315,#140,.T.);
#385=EDGE_CURVE('',#315,#316,#258,.T.);
#386=EDGE_CURVE('',#316,#317,#141,.T.);
#387=EDGE_CURVE('',#317,#318,#259,.T.);
#388=EDGE_CURVE('',#318,#319,#142,.T.);
#389=EDGE_CURVE('',#319,#320,#260,.T.);
#390=EDGE_CURVE('',#320,#297,#143,.T.);
#391=EDGE_CURVE('',#321,#321,#261,.T.);
#392=EDGE_CURVE('',#322,#322,#262,.T.);
#393=EDGE_CURVE('',#322,#323,#263,.T.);
#394=EDGE_CURVE('',#323,#324,#264,.T.);
#395=EDGE_CURVE('',#324,#323,#265,.T.);
#396=EDGE_CURVE('',#324,#325,#144,.T.);
#397=EDGE_CURVE('',#326,#325,#266,.T.);
#398=EDGE_CURVE('',#325,#326,#267,.T.);
#399=EDGE_CURVE('',#304,#327,#145,.T.);
#400=EDGE_CURVE('',#328,#303,#146,.T.);
#401=EDGE_CURVE('',#327,#328,#147,.T.);
#402=EDGE_CURVE('',#329,#329,#268,.T.);
#403=EDGE_CURVE('',#329,#326,#269,.T.);
#404=EDGE_CURVE('',#317,#330,#148,.T.);
#405=EDGE_CURVE('',#331,#316,#149,.T.);
#406=EDGE_CURVE('',#330,#331,#150,.T.);
#407=EDGE_CURVE('',#332,#333,#270,.T.);
#408=EDGE_CURVE('',#333,#334,#151,.T.);
#409=EDGE_CURVE('',#334,#335,#271,.T.);
#410=EDGE_CURVE('',#335,#336,#152,.T.);
#411=EDGE_CURVE('',#336,#327,#272,.T.);
#412=EDGE_CURVE('',#328,#337,#273,.T.);
#413=EDGE_CURVE('',#337,#332,#153,.T.);
#414=EDGE_CURVE('',#338,#339,#154,.T.);
#415=EDGE_CURVE('',#339,#340,#274,.T.);
#416=EDGE_CURVE('',#340,#341,#155,.T.);
#417=EDGE_CURVE('',#341,#342,#275,.T.);
#418=EDGE_CURVE('',#342,#343,#156,.T.);
#419=EDGE_CURVE('',#343,#330,#276,.T.);
#420=EDGE_CURVE('',#331,#338,#277,.T.);
#421=EDGE_CURVE('',#332,#301,#157,.T.);
#422=EDGE_CURVE('',#300,#333,#158,.T.);
#423=EDGE_CURVE('',#302,#337,#159,.T.);
#424=EDGE_CURVE('',#334,#307,#160,.T.);
#425=EDGE_CURVE('',#306,#335,#161,.T.);
#426=EDGE_CURVE('',#336,#305,#162,.T.);
#427=EDGE_CURVE('',#279,#340,#163,.T.);
#428=EDGE_CURVE('',#339,#278,#164,.T.);
#429=EDGE_CURVE('',#315,#338,#165,.T.);
#430=EDGE_CURVE('',#280,#314,#166,.T.);
#431=EDGE_CURVE('',#288,#342,#167,.T.);
#432=EDGE_CURVE('',#341,#287,#168,.T.);
#433=EDGE_CURVE('',#309,#285,#169,.T.);
#434=EDGE_CURVE('',#343,#318,#170,.T.);
#435=EDGE_CURVE('',#313,#281,#171,.T.);
#436=EDGE_CURVE('',#293,#320,#172,.T.);
#437=EDGE_CURVE('',#319,#294,#173,.T.);
#438=EDGE_CURVE('',#284,#310,#174,.T.);
#439=EDGE_CURVE('',#283,#311,#175,.T.);
#440=EDGE_CURVE('',#308,#286,#176,.T.);
#441=EDGE_CURVE('',#282,#312,#177,.T.);
#442=EDGE_CURVE('',#321,#295,#178,.T.);
#443=ORIENTED_EDGE('',*,*,#344,.F.);
#444=ORIENTED_EDGE('',*,*,#345,.F.);
#445=ORIENTED_EDGE('',*,*,#346,.F.);
#446=ORIENTED_EDGE('',*,*,#347,.F.);
#447=ORIENTED_EDGE('',*,*,#348,.F.);
#448=ORIENTED_EDGE('',*,*,#349,.F.);
#449=ORIENTED_EDGE('',*,*,#350,.F.);
#450=ORIENTED_EDGE('',*,*,#351,.F.);
#451=ORIENTED_EDGE('',*,*,#352,.F.);
#452=ORIENTED_EDGE('',*,*,#353,.F.);
#453=ORIENTED_EDGE('',*,*,#354,.F.);
#454=ORIENTED_EDGE('',*,*,#355,.F.);
#455=ORIENTED_EDGE('',*,*,#356,.F.);
#456=ORIENTED_EDGE('',*,*,#357,.F.);
#457=ORIENTED_EDGE('',*,*,#358,.F.);
#458=ORIENTED_EDGE('',*,*,#359,.F.);
#459=ORIENTED_EDGE('',*,*,#360,.F.);
#460=ORIENTED_EDGE('',*,*,#361,.F.);
#461=ORIENTED_EDGE('',*,*,#357,.T.);
#462=ORIENTED_EDGE('',*,*,#362,.T.);
#463=ORIENTED_EDGE('',*,*,#363,.F.);
#464=ORIENTED_EDGE('',*,*,#364,.F.);
#465=ORIENTED_EDGE('',*,*,#356,.T.);
#466=ORIENTED_EDGE('',*,*,#365,.F.);
#467=ORIENTED_EDGE('',*,*,#366,.F.);
#468=ORIENTED_EDGE('',*,*,#362,.F.);
#469=ORIENTED_EDGE('',*,*,#355,.T.);
#470=ORIENTED_EDGE('',*,*,#367,.T.);
#471=ORIENTED_EDGE('',*,*,#368,.F.);
#472=ORIENTED_EDGE('',*,*,#365,.T.);
#473=ORIENTED_EDGE('',*,*,#369,.T.);
#474=ORIENTED_EDGE('',*,*,#370,.T.);
#475=ORIENTED_EDGE('',*,*,#371,.T.);
#476=ORIENTED_EDGE('',*,*,#372,.T.);
#477=ORIENTED_EDGE('',*,*,#373,.T.);
#478=ORIENTED_EDGE('',*,*,#374,.T.);
#479=ORIENTED_EDGE('',*,*,#375,.T.);
#480=ORIENTED_EDGE('',*,*,#376,.T.);
#481=ORIENTED_EDGE('',*,*,#377,.T.);
#482=ORIENTED_EDGE('',*,*,#378,.T.);
#483=ORIENTED_EDGE('',*,*,#379,.T.);
#484=ORIENTED_EDGE('',*,*,#380,.T.);
#485=ORIENTED_EDGE('',*,*,#381,.T.);
#486=ORIENTED_EDGE('',*,*,#382,.T.);
#487=ORIENTED_EDGE('',*,*,#383,.T.);
#488=ORIENTED_EDGE('',*,*,#384,.T.);
#489=ORIENTED_EDGE('',*,*,#385,.T.);
#490=ORIENTED_EDGE('',*,*,#386,.T.);
#491=ORIENTED_EDGE('',*,*,#387,.T.);
#492=ORIENTED_EDGE('',*,*,#388,.T.);
#493=ORIENTED_EDGE('',*,*,#389,.T.);
#494=ORIENTED_EDGE('',*,*,#390,.T.);
#495=ORIENTED_EDGE('',*,*,#363,.T.);
#496=ORIENTED_EDGE('',*,*,#366,.T.);
#497=ORIENTED_EDGE('',*,*,#368,.T.);
#498=ORIENTED_EDGE('',*,*,#391,.T.);
#499=ORIENTED_EDGE('',*,*,#392,.T.);
#500=ORIENTED_EDGE('',*,*,#393,.T.);
#501=ORIENTED_EDGE('',*,*,#394,.T.);
#502=ORIENTED_EDGE('',*,*,#395,.T.);
#503=ORIENTED_EDGE('',*,*,#393,.F.);
#504=ORIENTED_EDGE('',*,*,#395,.F.);
#505=ORIENTED_EDGE('',*,*,#396,.T.);
#506=ORIENTED_EDGE('',*,*,#397,.F.);
#507=ORIENTED_EDGE('',*,*,#398,.F.);
#508=ORIENTED_EDGE('',*,*,#396,.F.);
#509=ORIENTED_EDGE('',*,*,#394,.F.);
#510=ORIENTED_EDGE('',*,*,#399,.F.);
#511=ORIENTED_EDGE('',*,*,#372,.F.);
#512=ORIENTED_EDGE('',*,*,#400,.F.);
#513=ORIENTED_EDGE('',*,*,#401,.F.);
#514=ORIENTED_EDGE('',*,*,#392,.F.);
#515=ORIENTED_EDGE('',*,*,#402,.T.);
#516=ORIENTED_EDGE('',*,*,#403,.T.);
#517=ORIENTED_EDGE('',*,*,#397,.T.);
#518=ORIENTED_EDGE('',*,*,#398,.T.);
#519=ORIENTED_EDGE('',*,*,#403,.F.);
#520=ORIENTED_EDGE('',*,*,#404,.F.);
#521=ORIENTED_EDGE('',*,*,#386,.F.);
#522=ORIENTED_EDGE('',*,*,#405,.F.);
#523=ORIENTED_EDGE('',*,*,#406,.F.);
#524=ORIENTED_EDGE('',*,*,#402,.F.);
#525=ORIENTED_EDGE('',*,*,#407,.T.);
#526=ORIENTED_EDGE('',*,*,#408,.T.);
#527=ORIENTED_EDGE('',*,*,#409,.T.);
#528=ORIENTED_EDGE('',*,*,#410,.T.);
#529=ORIENTED_EDGE('',*,*,#411,.T.);
#530=ORIENTED_EDGE('',*,*,#401,.T.);
#531=ORIENTED_EDGE('',*,*,#412,.T.);
#532=ORIENTED_EDGE('',*,*,#413,.T.);
#533=ORIENTED_EDGE('',*,*,#414,.T.);
#534=ORIENTED_EDGE('',*,*,#415,.T.);
#535=ORIENTED_EDGE('',*,*,#416,.T.);
#536=ORIENTED_EDGE('',*,*,#417,.T.);
#537=ORIENTED_EDGE('',*,*,#418,.T.);
#538=ORIENTED_EDGE('',*,*,#419,.T.);
#539=ORIENTED_EDGE('',*,*,#406,.T.);
#540=ORIENTED_EDGE('',*,*,#420,.T.);
#541=ORIENTED_EDGE('',*,*,#421,.T.);
#542=ORIENTED_EDGE('',*,*,#369,.F.);
#543=ORIENTED_EDGE('',*,*,#422,.T.);
#544=ORIENTED_EDGE('',*,*,#407,.F.);
#545=ORIENTED_EDGE('',*,*,#421,.F.);
#546=ORIENTED_EDGE('',*,*,#413,.F.);
#547=ORIENTED_EDGE('',*,*,#423,.F.);
#548=ORIENTED_EDGE('',*,*,#370,.F.);
#549=ORIENTED_EDGE('',*,*,#424,.T.);
#550=ORIENTED_EDGE('',*,*,#375,.F.);
#551=ORIENTED_EDGE('',*,*,#425,.T.);
#552=ORIENTED_EDGE('',*,*,#409,.F.);
#553=ORIENTED_EDGE('',*,*,#425,.F.);
#554=ORIENTED_EDGE('',*,*,#374,.F.);
#555=ORIENTED_EDGE('',*,*,#426,.F.);
#556=ORIENTED_EDGE('',*,*,#410,.F.);
#557=ORIENTED_EDGE('',*,*,#399,.T.);
#558=ORIENTED_EDGE('',*,*,#411,.F.);
#559=ORIENTED_EDGE('',*,*,#426,.T.);
#560=ORIENTED_EDGE('',*,*,#373,.F.);
#561=ORIENTED_EDGE('',*,*,#400,.T.);
#562=ORIENTED_EDGE('',*,*,#371,.F.);
#563=ORIENTED_EDGE('',*,*,#423,.T.);
#564=ORIENTED_EDGE('',*,*,#412,.F.);
#565=ORIENTED_EDGE('',*,*,#427,.T.);
#566=ORIENTED_EDGE('',*,*,#415,.F.);
#567=ORIENTED_EDGE('',*,*,#428,.T.);
#568=ORIENTED_EDGE('',*,*,#344,.T.);
#569=ORIENTED_EDGE('',*,*,#428,.F.);
#570=ORIENTED_EDGE('',*,*,#414,.F.);
#571=ORIENTED_EDGE('',*,*,#429,.F.);
#572=ORIENTED_EDGE('',*,*,#384,.F.);
#573=ORIENTED_EDGE('',*,*,#430,.F.);
#574=ORIENTED_EDGE('',*,*,#345,.T.);
#575=ORIENTED_EDGE('',*,*,#431,.T.);
#576=ORIENTED_EDGE('',*,*,#417,.F.);
#577=ORIENTED_EDGE('',*,*,#432,.T.);
#578=ORIENTED_EDGE('',*,*,#353,.T.);
#579=ORIENTED_EDGE('',*,*,#427,.F.);
#580=ORIENTED_EDGE('',*,*,#351,.T.);
#581=ORIENTED_EDGE('',*,*,#433,.F.);
#582=ORIENTED_EDGE('',*,*,#378,.F.);
#583=ORIENTED_EDGE('',*,*,#367,.F.);
#584=ORIENTED_EDGE('',*,*,#354,.T.);
#585=ORIENTED_EDGE('',*,*,#432,.F.);
#586=ORIENTED_EDGE('',*,*,#416,.F.);
#587=ORIENTED_EDGE('',*,*,#404,.T.);
#588=ORIENTED_EDGE('',*,*,#419,.F.);
#589=ORIENTED_EDGE('',*,*,#434,.T.);
#590=ORIENTED_EDGE('',*,*,#387,.F.);
#591=ORIENTED_EDGE('',*,*,#405,.T.);
#592=ORIENTED_EDGE('',*,*,#385,.F.);
#593=ORIENTED_EDGE('',*,*,#429,.T.);
#594=ORIENTED_EDGE('',*,*,#420,.F.);
#595=ORIENTED_EDGE('',*,*,#346,.T.);
#596=ORIENTED_EDGE('',*,*,#430,.T.);
#597=ORIENTED_EDGE('',*,*,#383,.F.);
#598=ORIENTED_EDGE('',*,*,#435,.T.);
#599=ORIENTED_EDGE('',*,*,#359,.T.);
#600=ORIENTED_EDGE('',*,*,#436,.T.);
#601=ORIENTED_EDGE('',*,*,#389,.F.);
#602=ORIENTED_EDGE('',*,*,#437,.T.);
#603=ORIENTED_EDGE('',*,*,#358,.T.);
#604=ORIENTED_EDGE('',*,*,#364,.T.);
#605=ORIENTED_EDGE('',*,*,#390,.F.);
#606=ORIENTED_EDGE('',*,*,#436,.F.);
#607=ORIENTED_EDGE('',*,*,#350,.T.);
#608=ORIENTED_EDGE('',*,*,#438,.T.);
#609=ORIENTED_EDGE('',*,*,#379,.F.);
#610=ORIENTED_EDGE('',*,*,#433,.T.);
#611=ORIENTED_EDGE('',*,*,#349,.T.);
#612=ORIENTED_EDGE('',*,*,#439,.T.);
#613=ORIENTED_EDGE('',*,*,#380,.F.);
#614=ORIENTED_EDGE('',*,*,#438,.F.);
#615=ORIENTED_EDGE('',*,*,#431,.F.);
#616=ORIENTED_EDGE('',*,*,#360,.T.);
#617=ORIENTED_EDGE('',*,*,#437,.F.);
#618=ORIENTED_EDGE('',*,*,#388,.F.);
#619=ORIENTED_EDGE('',*,*,#434,.F.);
#620=ORIENTED_EDGE('',*,*,#418,.F.);
#621=ORIENTED_EDGE('',*,*,#377,.F.);
#622=ORIENTED_EDGE('',*,*,#440,.T.);
#623=ORIENTED_EDGE('',*,*,#352,.T.);
#624=ORIENTED_EDGE('',*,*,#440,.F.);
#625=ORIENTED_EDGE('',*,*,#347,.T.);
#626=ORIENTED_EDGE('',*,*,#435,.F.);
#627=ORIENTED_EDGE('',*,*,#382,.F.);
#628=ORIENTED_EDGE('',*,*,#441,.F.);
#629=ORIENTED_EDGE('',*,*,#348,.T.);
#630=ORIENTED_EDGE('',*,*,#441,.T.);
#631=ORIENTED_EDGE('',*,*,#381,.F.);
#632=ORIENTED_EDGE('',*,*,#439,.F.);
#633=ORIENTED_EDGE('',*,*,#391,.F.);
#634=ORIENTED_EDGE('',*,*,#442,.T.);
#635=ORIENTED_EDGE('',*,*,#361,.T.);
#636=ORIENTED_EDGE('',*,*,#442,.F.);
#637=ORIENTED_EDGE('',*,*,#422,.F.);
#638=ORIENTED_EDGE('',*,*,#376,.F.);
#639=ORIENTED_EDGE('',*,*,#424,.F.);
#640=ORIENTED_EDGE('',*,*,#408,.F.);
#641=PLANE('',#706);
#642=PLANE('',#712);
#643=PLANE('',#720);
#644=PLANE('',#723);
#645=PLANE('',#744);
#646=PLANE('',#748);
#647=PLANE('',#749);
#648=PLANE('',#759);
#649=PLANE('',#761);
#650=PLANE('',#765);
#651=PLANE('',#767);
#652=PLANE('',#772);
#653=PLANE('',#774);
#654=PLANE('',#775);
#655=PLANE('',#777);
#656=PLANE('',#780);
#657=ADVANCED_FACE('',(#42,#34),#641,.T.);
#658=ADVANCED_FACE('',(#43,#35),#642,.T.);
#659=ADVANCED_FACE('',(#44),#17,.T.);
#660=ADVANCED_FACE('',(#45),#643,.T.);
#661=ADVANCED_FACE('',(#46),#18,.F.);
#662=ADVANCED_FACE('',(#47,#36,#37,#38),#644,.F.);
#663=ADVANCED_FACE('',(#48),#15,.T.);
#664=ADVANCED_FACE('',(#49),#19,.F.);
#665=ADVANCED_FACE('',(#50,#39),#645,.T.);
#666=ADVANCED_FACE('',(#51),#16,.T.);
#667=ADVANCED_FACE('',(#52,#40),#646,.T.);
#668=ADVANCED_FACE('',(#53,#41),#647,.T.);
#669=ADVANCED_FACE('',(#54),#20,.T.);
#670=ADVANCED_FACE('',(#55),#648,.T.);
#671=ADVANCED_FACE('',(#56),#21,.T.);
#672=ADVANCED_FACE('',(#57),#649,.T.);
#673=ADVANCED_FACE('',(#58),#22,.T.);
#674=ADVANCED_FACE('',(#59),#23,.T.);
#675=ADVANCED_FACE('',(#60),#24,.F.);
#676=ADVANCED_FACE('',(#61),#650,.T.);
#677=ADVANCED_FACE('',(#62),#25,.F.);
#678=ADVANCED_FACE('',(#63),#651,.T.);
#679=ADVANCED_FACE('',(#64),#26,.F.);
#680=ADVANCED_FACE('',(#65),#27,.F.);
#681=ADVANCED_FACE('',(#66),#28,.F.);
#682=ADVANCED_FACE('',(#67),#29,.F.);
#683=ADVANCED_FACE('',(#68),#652,.T.);
#684=ADVANCED_FACE('',(#69),#30,.F.);
#685=ADVANCED_FACE('',(#70),#653,.T.);
#686=ADVANCED_FACE('',(#71),#654,.T.);
#687=ADVANCED_FACE('',(#72),#31,.F.);
#688=ADVANCED_FACE('',(#73),#655,.T.);
#689=ADVANCED_FACE('',(#74),#32,.T.);
#690=ADVANCED_FACE('',(#75),#33,.F.);
#691=ADVANCED_FACE('',(#76),#656,.T.);
#692=CLOSED_SHELL('',(#657,#658,#659,#660,#661,#662,#663,#664,#665,#666,
#667,#668,#669,#670,#671,#672,#673,#674,#675,#676,#677,#678,#679,#680,#681,
#682,#683,#684,#685,#686,#687,#688,#689,#690,#691));
#693=DERIVED_UNIT_ELEMENT(#695,1.);
#694=DERIVED_UNIT_ELEMENT(#1198,-3.);
#695=(
MASS_UNIT()
NAMED_UNIT(*)
SI_UNIT(.KILO.,.GRAM.)
);
#696=DERIVED_UNIT((#693,#694));
#697=MEASURE_REPRESENTATION_ITEM('density measure',
POSITIVE_RATIO_MEASURE(7850.),#696);
#698=PROPERTY_DEFINITION_REPRESENTATION(#703,#700);
#699=PROPERTY_DEFINITION_REPRESENTATION(#704,#701);
#700=REPRESENTATION('material name',(#702),#1195);
#701=REPRESENTATION('density',(#697),#1195);
#702=DESCRIPTIVE_REPRESENTATION_ITEM('Steel','Steel');
#703=PROPERTY_DEFINITION('material property','material name',#1205);
#704=PROPERTY_DEFINITION('material property','density of part',#1205);
#705=AXIS2_PLACEMENT_3D('',#992,#781,#782);
#706=AXIS2_PLACEMENT_3D('',#993,#783,#784);
#707=AXIS2_PLACEMENT_3D('',#996,#785,#786);
#708=AXIS2_PLACEMENT_3D('',#1000,#788,#789);
#709=AXIS2_PLACEMENT_3D('',#1004,#791,#792);
#710=AXIS2_PLACEMENT_3D('',#1008,#794,#795);
#711=AXIS2_PLACEMENT_3D('',#1011,#797,#798);
#712=AXIS2_PLACEMENT_3D('',#1012,#799,#800);
#713=AXIS2_PLACEMENT_3D('',#1015,#801,#802);
#714=AXIS2_PLACEMENT_3D('',#1019,#804,#805);
#715=AXIS2_PLACEMENT_3D('',#1023,#807,#808);
#716=AXIS2_PLACEMENT_3D('',#1027,#810,#811);
#717=AXIS2_PLACEMENT_3D('',#1030,#813,#814);
#718=AXIS2_PLACEMENT_3D('',#1031,#815,#816);
#719=AXIS2_PLACEMENT_3D('',#1035,#818,#819);
#720=AXIS2_PLACEMENT_3D('',#1037,#821,#822);
#721=AXIS2_PLACEMENT_3D('',#1041,#825,#826);
#722=AXIS2_PLACEMENT_3D('',#1044,#828,#829);
#723=AXIS2_PLACEMENT_3D('',#1045,#830,#831);
#724=AXIS2_PLACEMENT_3D('',#1048,#832,#833);
#725=AXIS2_PLACEMENT_3D('',#1052,#835,#836);
#726=AXIS2_PLACEMENT_3D('',#1056,#838,#839);
#727=AXIS2_PLACEMENT_3D('',#1060,#841,#842);
#728=AXIS2_PLACEMENT_3D('',#1063,#844,#845);
#729=AXIS2_PLACEMENT_3D('',#1067,#847,#848);
#730=AXIS2_PLACEMENT_3D('',#1071,#850,#851);
#731=AXIS2_PLACEMENT_3D('',#1075,#853,#854);
#732=AXIS2_PLACEMENT_3D('',#1079,#856,#857);
#733=AXIS2_PLACEMENT_3D('',#1083,#859,#860);
#734=AXIS2_PLACEMENT_3D('',#1087,#862,#863);
#735=AXIS2_PLACEMENT_3D('',#1090,#865,#866);
#736=AXIS2_PLACEMENT_3D('',#1091,#867,#868);
#737=AXIS2_PLACEMENT_3D('',#1093,#869,#870);
#738=AXIS2_PLACEMENT_3D('',#1095,#871,#872);
#739=AXIS2_PLACEMENT_3D('',#1097,#873,#874);
#740=AXIS2_PLACEMENT_3D('',#1098,#875,#876);
#741=AXIS2_PLACEMENT_3D('',#1099,#877,#878);
#742=AXIS2_PLACEMENT_3D('',#1103,#880,#881);
#743=AXIS2_PLACEMENT_3D('',#1104,#882,#883);
#744=AXIS2_PLACEMENT_3D('',#1105,#884,#885);
#745=AXIS2_PLACEMENT_3D('',#1111,#889,#890);
#746=AXIS2_PLACEMENT_3D('',#1113,#891,#892);
#747=AXIS2_PLACEMENT_3D('',#1114,#893,#894);
#748=AXIS2_PLACEMENT_3D('',#1115,#895,#896);
#749=AXIS2_PLACEMENT_3D('',#1121,#900,#901);
#750=AXIS2_PLACEMENT_3D('',#1124,#902,#903);
#751=AXIS2_PLACEMENT_3D('',#1128,#905,#906);
#752=AXIS2_PLACEMENT_3D('',#1131,#908,#909);
#753=AXIS2_PLACEMENT_3D('',#1133,#910,#911);
#754=AXIS2_PLACEMENT_3D('',#1139,#914,#915);
#755=AXIS2_PLACEMENT_3D('',#1143,#917,#918);
#756=AXIS2_PLACEMENT_3D('',#1146,#920,#921);
#757=AXIS2_PLACEMENT_3D('',#1147,#922,#923);
#758=AXIS2_PLACEMENT_3D('',#1148,#924,#925);
#759=AXIS2_PLACEMENT_3D('',#1151,#928,#929);
#760=AXIS2_PLACEMENT_3D('',#1153,#931,#932);
#761=AXIS2_PLACEMENT_3D('',#1156,#935,#936);
#762=AXIS2_PLACEMENT_3D('',#1158,#938,#939);
#763=AXIS2_PLACEMENT_3D('',#1159,#940,#941);
#764=AXIS2_PLACEMENT_3D('',#1160,#942,#943);
#765=AXIS2_PLACEMENT_3D('',#1163,#946,#947);
#766=AXIS2_PLACEMENT_3D('',#1166,#950,#951);
#767=AXIS2_PLACEMENT_3D('',#1169,#954,#955);
#768=AXIS2_PLACEMENT_3D('',#1171,#957,#958);
#769=AXIS2_PLACEMENT_3D('',#1173,#960,#961);
#770=AXIS2_PLACEMENT_3D('',#1174,#962,#963);
#771=AXIS2_PLACEMENT_3D('',#1176,#965,#966);
#772=AXIS2_PLACEMENT_3D('',#1179,#969,#970);
#773=AXIS2_PLACEMENT_3D('',#1180,#971,#972);
#774=AXIS2_PLACEMENT_3D('',#1182,#974,#975);
#775=AXIS2_PLACEMENT_3D('',#1184,#977,#978);
#776=AXIS2_PLACEMENT_3D('',#1185,#979,#980);
#777=AXIS2_PLACEMENT_3D('',#1187,#982,#983);
#778=AXIS2_PLACEMENT_3D('',#1189,#985,#986);
#779=AXIS2_PLACEMENT_3D('',#1190,#987,#988);
#780=AXIS2_PLACEMENT_3D('',#1192,#990,#991);
#781=DIRECTION('axis',(0.,0.,1.));
#782=DIRECTION('refdir',(1.,0.,0.));
#783=DIRECTION('center_axis',(0.,0.,1.));
#784=DIRECTION('ref_axis',(1.,0.,0.));
#785=DIRECTION('center_axis',(0.,0.,-1.));
#786=DIRECTION('ref_axis',(-0.707106781186549,0.707106781186546,0.));
#787=DIRECTION('',(0.,1.,0.));
#788=DIRECTION('center_axis',(0.,0.,1.));
#789=DIRECTION('ref_axis',(-0.707106781186549,0.707106781186546,0.));
#790=DIRECTION('',(-1.,0.,0.));
#791=DIRECTION('center_axis',(0.,0.,-1.));
#792=DIRECTION('ref_axis',(0.,-1.,0.));
#793=DIRECTION('',(0.,-1.,0.));
#794=DIRECTION('center_axis',(0.,0.,1.));
#795=DIRECTION('ref_axis',(-0.707106781186546,0.707106781186549,0.));
#796=DIRECTION('',(1.,0.,0.));
#797=DIRECTION('center_axis',(0.,0.,1.));
#798=DIRECTION('ref_axis',(1.,0.,0.));
#799=DIRECTION('center_axis',(0.,0.,1.));
#800=DIRECTION('ref_axis',(1.,0.,0.));
#801=DIRECTION('center_axis',(0.,0.,-1.));
#802=DIRECTION('ref_axis',(0.707106781186549,0.707106781186546,0.));
#803=DIRECTION('',(1.,0.,0.));
#804=DIRECTION('center_axis',(0.,0.,1.));
#805=DIRECTION('ref_axis',(0.707106781186546,0.707106781186549,0.));
#806=DIRECTION('',(0.,1.,0.));
#807=DIRECTION('center_axis',(0.,0.,-1.));
#808=DIRECTION('ref_axis',(-1.,0.,0.));
#809=DIRECTION('',(-1.,8.32667268468867E-16,0.));
#810=DIRECTION('center_axis',(0.,0.,1.));
#811=DIRECTION('ref_axis',(0.707106781186546,0.707106781186549,0.));
#812=DIRECTION('',(0.,-1.,0.));
#813=DIRECTION('center_axis',(0.,0.,1.));
#814=DIRECTION('ref_axis',(1.,0.,0.));
#815=DIRECTION('center_axis',(0.,0.,-1.));
#816=DIRECTION('ref_axis',(-1.,0.,0.));
#817=DIRECTION('',(0.,0.,-1.));
#818=DIRECTION('center_axis',(0.,0.,-1.));
#819=DIRECTION('ref_axis',(-1.,0.,0.));
#820=DIRECTION('',(0.,0.,-1.));
#821=DIRECTION('center_axis',(-1.,0.,0.));
#822=DIRECTION('ref_axis',(0.,1.,0.));
#823=DIRECTION('',(0.,0.,1.));
#824=DIRECTION('',(0.,1.,0.));
#825=DIRECTION('center_axis',(0.,0.,1.));
#826=DIRECTION('ref_axis',(0.707106781186546,0.707106781186549,0.));
#827=DIRECTION('',(0.,0.,-1.));
#828=DIRECTION('center_axis',(0.,0.,1.));
#829=DIRECTION('ref_axis',(0.707106781186546,0.707106781186549,0.));
#830=DIRECTION('center_axis',(0.,0.,1.));
#831=DIRECTION('ref_axis',(1.,0.,0.));
#832=DIRECTION('center_axis',(0.,0.,-1.));
#833=DIRECTION('ref_axis',(0.707106781186548,0.707106781186547,0.));
#834=DIRECTION('',(0.,-1.,0.));
#835=DIRECTION('center_axis',(0.,0.,-1.));
#836=DIRECTION('ref_axis',(0.707106781186548,-0.707106781186547,0.));
#837=DIRECTION('',(-1.,0.,0.));
#838=DIRECTION('center_axis',(0.,0.,-1.));
#839=DIRECTION('ref_axis',(-0.707106781186548,-0.707106781186547,0.));
#840=DIRECTION('',(0.,1.,0.));
#841=DIRECTION('center_axis',(0.,0.,-1.));
#842=DIRECTION('ref_axis',(-0.707106781186548,0.707106781186547,0.));
#843=DIRECTION('',(1.,0.,0.));
#844=DIRECTION('center_axis',(0.,0.,1.));
#845=DIRECTION('ref_axis',(1.,0.,0.));
#846=DIRECTION('',(-1.,0.,0.));
#847=DIRECTION('center_axis',(0.,0.,1.));
#848=DIRECTION('ref_axis',(-0.707106781186546,0.707106781186549,0.));
#849=DIRECTION('',(0.,-1.,0.));
#850=DIRECTION('center_axis',(0.,0.,-1.));
#851=DIRECTION('ref_axis',(0.,-1.,0.));
#852=DIRECTION('',(-1.,0.,0.));
#853=DIRECTION('center_axis',(0.,0.,1.));
#854=DIRECTION('ref_axis',(-0.707106781186549,0.707106781186546,0.));
#855=DIRECTION('',(0.,-1.,0.));
#856=DIRECTION('center_axis',(0.,0.,1.));
#857=DIRECTION('ref_axis',(-0.707106781186546,-0.707106781186549,0.));
#858=DIRECTION('',(1.,0.,0.));
#859=DIRECTION('center_axis',(0.,0.,1.));
#860=DIRECTION('ref_axis',(0.707106781186546,-0.707106781186549,0.));
#861=DIRECTION('',(0.,1.,0.));
#862=DIRECTION('center_axis',(0.,0.,1.));
#863=DIRECTION('ref_axis',(0.707106781186546,0.707106781186549,0.));
#864=DIRECTION('',(-1.,8.32667268468867E-16,0.));
#865=DIRECTION('center_axis',(0.,0.,1.));
#866=DIRECTION('ref_axis',(1.,0.,0.));
#867=DIRECTION('center_axis',(0.,1.,0.));
#868=DIRECTION('ref_axis',(0.,0.,1.));
#869=DIRECTION('center_axis',(0.,-1.,0.));
#870=DIRECTION('ref_axis',(1.,0.,0.));
#871=DIRECTION('center_axis',(-1.,0.,1.22464679914735E-16));
#872=DIRECTION('ref_axis',(-1.22464679914735E-16,0.,-1.));
#873=DIRECTION('center_axis',(0.,1.,0.));
#874=DIRECTION('ref_axis',(1.,0.,0.));
#875=DIRECTION('center_axis',(0.,1.,0.));
#876=DIRECTION('ref_axis',(1.,0.,0.));
#877=DIRECTION('center_axis',(0.,1.,0.));
#878=DIRECTION('ref_axis',(1.,0.,0.));
#879=DIRECTION('',(0.,1.,0.));
#880=DIRECTION('center_axis',(0.,-1.,0.));
#881=DIRECTION('ref_axis',(1.,0.,0.));
#882=DIRECTION('center_axis',(0.,-1.,0.));
#883=DIRECTION('ref_axis',(1.,0.,0.));
#884=DIRECTION('center_axis',(0.,-1.,0.));
#885=DIRECTION('ref_axis',(-1.,0.,0.));
#886=DIRECTION('',(0.,0.,1.));
#887=DIRECTION('',(0.,0.,-1.));
#888=DIRECTION('',(1.,0.,0.));
#889=DIRECTION('center_axis',(0.,-1.,0.));
#890=DIRECTION('ref_axis',(0.,0.,-1.));
#891=DIRECTION('center_axis',(0.,1.,0.));
#892=DIRECTION('ref_axis',(1.,0.,0.));
#893=DIRECTION('center_axis',(-1.,0.,-1.22464679914735E-16));
#894=DIRECTION('ref_axis',(-1.22464679914735E-16,0.,1.));
#895=DIRECTION('center_axis',(0.,1.,0.));
#896=DIRECTION('ref_axis',(1.,0.,0.));
#897=DIRECTION('',(0.,0.,1.));
#898=DIRECTION('',(0.,0.,-1.));
#899=DIRECTION('',(-1.,0.,0.));
#900=DIRECTION('center_axis',(0.,0.,1.));
#901=DIRECTION('ref_axis',(1.,0.,0.));
#902=DIRECTION('center_axis',(0.,0.,1.));
#903=DIRECTION('ref_axis',(0.707106781186548,0.707106781186547,0.));
#904=DIRECTION('',(-1.,0.,0.));
#905=DIRECTION('center_axis',(0.,0.,1.));
#906=DIRECTION('ref_axis',(-0.707106781186548,0.707106781186547,0.));
#907=DIRECTION('',(0.,-1.,0.));
#908=DIRECTION('center_axis',(0.,0.,1.));
#909=DIRECTION('ref_axis',(-0.707106781186548,-0.707106781186547,0.));
#910=DIRECTION('center_axis',(0.,0.,1.));
#911=DIRECTION('ref_axis',(0.707106781186548,-0.707106781186547,0.));
#912=DIRECTION('',(0.,1.,0.));
#913=DIRECTION('',(0.,1.,0.));
#914=DIRECTION('center_axis',(0.,0.,-1.));
#915=DIRECTION('ref_axis',(-0.707106781186549,0.707106781186546,0.));
#916=DIRECTION('',(1.,0.,0.));
#917=DIRECTION('center_axis',(0.,0.,-1.));
#918=DIRECTION('ref_axis',(0.707106781186549,0.707106781186546,0.));
#919=DIRECTION('',(0.,-1.,0.));
#920=DIRECTION('center_axis',(0.,0.,-1.));
#921=DIRECTION('ref_axis',(0.707106781186546,-0.707106781186549,0.));
#922=DIRECTION('center_axis',(0.,0.,-1.));
#923=DIRECTION('ref_axis',(-0.707106781186546,-0.707106781186549,0.));
#924=DIRECTION('center_axis',(0.,0.,1.));
#925=DIRECTION('ref_axis',(0.707106781186548,0.707106781186547,0.));
#926=DIRECTION('',(0.,0.,-1.));
#927=DIRECTION('',(0.,0.,1.));
#928=DIRECTION('center_axis',(1.,0.,0.));
#929=DIRECTION('ref_axis',(0.,-1.,0.));
#930=DIRECTION('',(0.,0.,1.));
#931=DIRECTION('center_axis',(0.,0.,1.));
#932=DIRECTION('ref_axis',(-0.707106781186548,0.707106781186547,0.));
#933=DIRECTION('',(0.,0.,-1.));
#934=DIRECTION('',(0.,0.,1.));
#935=DIRECTION('center_axis',(-1.,0.,0.));
#936=DIRECTION('ref_axis',(0.,1.,0.));
#937=DIRECTION('',(0.,0.,-1.));
#938=DIRECTION('center_axis',(0.,0.,-1.));
#939=DIRECTION('ref_axis',(-0.707106781186548,-0.707106781186547,0.));
#940=DIRECTION('center_axis',(0.,0.,1.));
#941=DIRECTION('ref_axis',(0.707106781186548,-0.707106781186547,0.));
#942=DIRECTION('center_axis',(0.,0.,1.));
#943=DIRECTION('ref_axis',(-0.707106781186549,0.707106781186546,0.));
#944=DIRECTION('',(0.,0.,1.));
#945=DIRECTION('',(0.,0.,-1.));
#946=DIRECTION('center_axis',(1.,0.,0.));
#947=DIRECTION('ref_axis',(0.,-1.,0.));
#948=DIRECTION('',(0.,0.,1.));
#949=DIRECTION('',(0.,0.,-1.));
#950=DIRECTION('center_axis',(0.,0.,-1.));
#951=DIRECTION('ref_axis',(0.707106781186549,0.707106781186546,0.));
#952=DIRECTION('',(0.,0.,1.));
#953=DIRECTION('',(0.,0.,-1.));
#954=DIRECTION('center_axis',(0.,-1.,0.));
#955=DIRECTION('ref_axis',(-1.,0.,0.));
#956=DIRECTION('',(0.,0.,1.));
#957=DIRECTION('center_axis',(0.,0.,1.));
#958=DIRECTION('ref_axis',(0.707106781186546,-0.707106781186549,0.));
#959=DIRECTION('',(0.,0.,-1.));
#960=DIRECTION('center_axis',(0.,0.,-1.));
#961=DIRECTION('ref_axis',(-0.707106781186546,-0.707106781186549,0.));
#962=DIRECTION('center_axis',(0.,0.,-1.));
#963=DIRECTION('ref_axis',(-0.707106781186549,0.707106781186546,0.));
#964=DIRECTION('',(0.,0.,1.));
#965=DIRECTION('center_axis',(0.,0.,-1.));
#966=DIRECTION('ref_axis',(0.707106781186546,0.707106781186549,0.));
#967=DIRECTION('',(0.,0.,-1.));
#968=DIRECTION('',(0.,0.,1.));
#969=DIRECTION('center_axis',(-8.32667268468867E-16,-1.,0.));
#970=DIRECTION('ref_axis',(-1.,8.32667268468867E-16,0.));
#971=DIRECTION('center_axis',(0.,0.,-1.));
#972=DIRECTION('ref_axis',(-0.707106781186546,0.707106781186549,0.));
#973=DIRECTION('',(0.,0.,-1.));
#974=DIRECTION('center_axis',(1.,0.,0.));
#975=DIRECTION('ref_axis',(0.,-1.,0.));
#976=DIRECTION('',(0.,0.,-1.));
#977=DIRECTION('center_axis',(-1.,0.,0.));
#978=DIRECTION('ref_axis',(0.,1.,0.));
#979=DIRECTION('center_axis',(0.,0.,-1.));
#980=DIRECTION('ref_axis',(1.,0.,0.));
#981=DIRECTION('',(0.,0.,1.));
#982=DIRECTION('center_axis',(0.,-1.,0.));
#983=DIRECTION('ref_axis',(-1.,0.,0.));
#984=DIRECTION('',(0.,0.,-1.));
#985=DIRECTION('center_axis',(0.,0.,-1.));
#986=DIRECTION('ref_axis',(0.,-1.,0.));
#987=DIRECTION('center_axis',(0.,0.,-1.));
#988=DIRECTION('ref_axis',(1.,0.,0.));
#989=DIRECTION('',(0.,0.,1.));
#990=DIRECTION('center_axis',(0.,1.,0.));
#991=DIRECTION('ref_axis',(1.,0.,0.));
#992=CARTESIAN_POINT('',(0.,0.,0.));
#993=CARTESIAN_POINT('Origin',(0.,0.,-10.));
#994=CARTESIAN_POINT('',(-26.0000003874302,6.25,-10.));
#995=CARTESIAN_POINT('',(-25.,7.25000010430813,-10.));
#996=CARTESIAN_POINT('Origin',(-25.,6.25,-10.));
#997=CARTESIAN_POINT('',(-26.,1.25,-10.));
#998=CARTESIAN_POINT('',(-26.0000003874302,-3.50000005215406,-10.));
#999=CARTESIAN_POINT('',(-25.,2.25,-10.));
#1000=CARTESIAN_POINT('Origin',(-25.,1.25,-10.));
#1001=CARTESIAN_POINT('',(-24.,2.25,-10.));
#1002=CARTESIAN_POINT('',(-12.,2.25,-10.));
#1003=CARTESIAN_POINT('',(-21.5,4.75,-10.));
#1004=CARTESIAN_POINT('Origin',(-24.,4.75,-10.));
#1005=CARTESIAN_POINT('',(-21.5,6.25,-10.));
#1006=CARTESIAN_POINT('',(-21.5,3.625,-10.));
#1007=CARTESIAN_POINT('',(-20.5,7.25,-10.));
#1008=CARTESIAN_POINT('Origin',(-20.5,6.25,-10.));
#1009=CARTESIAN_POINT('',(-13.0000001937151,7.25000010430813,-10.));
#1010=CARTESIAN_POINT('',(-25.4,4.75,-10.));
#1011=CARTESIAN_POINT('Origin',(-24.,4.75,-10.));
#1012=CARTESIAN_POINT('Origin',(0.,0.,-10.));
#1013=CARTESIAN_POINT('',(25.,7.25000010430813,-10.));
#1014=CARTESIAN_POINT('',(26.0000003874302,6.25,-10.));
#1015=CARTESIAN_POINT('Origin',(25.,6.25,-10.));
#1016=CARTESIAN_POINT('',(20.5,7.25,-10.));
#1017=CARTESIAN_POINT('',(10.75,7.25000010430813,-10.));
#1018=CARTESIAN_POINT('',(21.5,6.25,-10.));
#1019=CARTESIAN_POINT('Origin',(20.5,6.25,-10.));
#1020=CARTESIAN_POINT('',(21.5,4.75,-10.));
#1021=CARTESIAN_POINT('',(21.5,2.375,-10.));
#1022=CARTESIAN_POINT('',(24.,2.25,-10.));
#1023=CARTESIAN_POINT('Origin',(24.,4.75,-10.));
#1024=CARTESIAN_POINT('',(25.,2.25,-10.));
#1025=CARTESIAN_POINT('',(13.,2.25000000000001,-10.));
#1026=CARTESIAN_POINT('',(26.,1.25,-10.));
#1027=CARTESIAN_POINT('Origin',(25.,1.25,-10.));
#1028=CARTESIAN_POINT('',(26.0000003874302,3.50000005215406,-10.));
#1029=CARTESIAN_POINT('',(22.6,4.75,-10.));
#1030=CARTESIAN_POINT('Origin',(24.,4.75,-10.));
#1031=CARTESIAN_POINT('Origin',(24.,4.75,0.));
#1032=CARTESIAN_POINT('',(21.5,4.75,-12.));
#1033=CARTESIAN_POINT('',(21.5,4.75,0.));
#1034=CARTESIAN_POINT('',(24.,2.25,-12.));
#1035=CARTESIAN_POINT('Origin',(24.,4.75,-12.));
#1036=CARTESIAN_POINT('',(24.,2.25,0.));
#1037=CARTESIAN_POINT('Origin',(21.5,4.75,0.));
#1038=CARTESIAN_POINT('',(21.5,6.25,-12.));
#1039=CARTESIAN_POINT('',(21.5,6.25,0.));
#1040=CARTESIAN_POINT('',(21.5,8.25,-12.));
#1041=CARTESIAN_POINT('Origin',(20.5,6.25,0.));
#1042=CARTESIAN_POINT('',(20.5,7.25,-12.));
#1043=CARTESIAN_POINT('',(20.5,7.25,0.));
#1044=CARTESIAN_POINT('Origin',(20.5,6.25,-12.));
#1045=CARTESIAN_POINT('Origin',(0.,0.,-12.));
#1046=CARTESIAN_POINT('',(26.,8.25,-12.));
#1047=CARTESIAN_POINT('',(28.,6.25,-12.));
#1048=CARTESIAN_POINT('Origin',(26.,6.25,-12.));
#1049=CARTESIAN_POINT('',(28.,-6.25,-12.));
#1050=CARTESIAN_POINT('',(28.,2.25,-12.));
#1051=CARTESIAN_POINT('',(26.,-8.25,-12.));
#1052=CARTESIAN_POINT('Origin',(26.,-6.25,-12.));
#1053=CARTESIAN_POINT('',(-26.,-8.25,-12.));
#1054=CARTESIAN_POINT('',(-26.,-8.25,-12.));
#1055=CARTESIAN_POINT('',(-28.,-6.25,-12.));
#1056=CARTESIAN_POINT('Origin',(-26.,-6.25,-12.));
#1057=CARTESIAN_POINT('',(-28.,6.25,-12.));
#1058=CARTESIAN_POINT('',(-28.,2.25,-12.));
#1059=CARTESIAN_POINT('',(-26.,8.25,-12.));
#1060=CARTESIAN_POINT('Origin',(-26.,6.25,-12.));
#1061=CARTESIAN_POINT('',(28.,8.25,-12.));
#1062=CARTESIAN_POINT('',(-25.4,4.75,-12.));
#1063=CARTESIAN_POINT('Origin',(-24.,4.75,-12.));
#1064=CARTESIAN_POINT('',(-20.5,7.25,-12.));
#1065=CARTESIAN_POINT('',(21.5,7.25,-12.));
#1066=CARTESIAN_POINT('',(-21.5,6.25,-12.));
#1067=CARTESIAN_POINT('Origin',(-20.5,6.25,-12.));
#1068=CARTESIAN_POINT('',(-21.5,4.75,-12.));
#1069=CARTESIAN_POINT('',(-21.5,8.25,-12.));
#1070=CARTESIAN_POINT('',(-24.,2.25,-12.));
#1071=CARTESIAN_POINT('Origin',(-24.,4.75,-12.));
#1072=CARTESIAN_POINT('',(-25.,2.25,-12.));
#1073=CARTESIAN_POINT('',(-24.,2.25,-12.));
#1074=CARTESIAN_POINT('',(-26.,1.25,-12.));
#1075=CARTESIAN_POINT('Origin',(-25.,1.25,-12.));
#1076=CARTESIAN_POINT('',(-26.,-5.75,-12.));
#1077=CARTESIAN_POINT('',(-26.,2.25,-12.));
#1078=CARTESIAN_POINT('',(-25.,-6.75,-12.));
#1079=CARTESIAN_POINT('Origin',(-25.,-5.75,-12.));
#1080=CARTESIAN_POINT('',(25.,-6.75,-12.));
#1081=CARTESIAN_POINT('',(26.0000003874302,-6.75,-12.));
#1082=CARTESIAN_POINT('',(26.,-5.75,-12.));
#1083=CARTESIAN_POINT('Origin',(25.,-5.75,-12.));
#1084=CARTESIAN_POINT('',(26.,1.25,-12.));
#1085=CARTESIAN_POINT('',(26.,-8.25,-12.));
#1086=CARTESIAN_POINT('',(25.,2.25,-12.));
#1087=CARTESIAN_POINT('Origin',(25.,1.25,-12.));
#1088=CARTESIAN_POINT('',(24.,2.25,-12.));
#1089=CARTESIAN_POINT('',(22.6,4.75,-12.));
#1090=CARTESIAN_POINT('Origin',(24.,4.75,-12.));
#1091=CARTESIAN_POINT('Origin',(0.,-7.95,60.));
#1092=CARTESIAN_POINT('',(-2.48603300226913E-15,-8.25,39.7));
#1093=CARTESIAN_POINT('Origin',(0.,-8.25,60.));
#1094=CARTESIAN_POINT('',(-2.44929359829471E-15,-7.95,40.));
#1095=CARTESIAN_POINT('Origin',(-2.48603300226913E-15,-7.95,39.7));
#1096=CARTESIAN_POINT('',(-20.,-7.95,60.));
#1097=CARTESIAN_POINT('Origin',(0.,-7.95,60.));
#1098=CARTESIAN_POINT('Origin',(0.,-7.95,60.));
#1099=CARTESIAN_POINT('Origin',(0.,-8.25,60.));
#1100=CARTESIAN_POINT('',(-20.,-7.75,60.));
#1101=CARTESIAN_POINT('',(-20.,-8.25,60.));
#1102=CARTESIAN_POINT('',(-2.44929359829471E-15,-7.75,80.));
#1103=CARTESIAN_POINT('Origin',(0.,-7.75,60.));
#1104=CARTESIAN_POINT('Origin',(0.,-7.75,60.));
#1105=CARTESIAN_POINT('Origin',(28.,-8.25,0.));
#1106=CARTESIAN_POINT('',(-26.,-8.25,85.));
#1107=CARTESIAN_POINT('',(-26.,-8.25,0.));
#1108=CARTESIAN_POINT('',(26.,-8.25,85.));
#1109=CARTESIAN_POINT('',(26.,-8.25,0.));
#1110=CARTESIAN_POINT('',(-28.,-8.25,85.));
#1111=CARTESIAN_POINT('Origin',(0.,-7.75,60.));
#1112=CARTESIAN_POINT('',(-2.57175827820944E-15,-6.75,81.));
#1113=CARTESIAN_POINT('Origin',(0.,-6.75,60.));
#1114=CARTESIAN_POINT('Origin',(-2.57175827820944E-15,-7.75,81.));
#1115=CARTESIAN_POINT('Origin',(-26.,-6.75,0.));
#1116=CARTESIAN_POINT('',(25.,-6.75000010430813,85.));
#1117=CARTESIAN_POINT('',(25.,-6.75,0.));
#1118=CARTESIAN_POINT('',(-25.,-6.75000010430813,85.));
#1119=CARTESIAN_POINT('',(-25.,-6.75,0.));
#1120=CARTESIAN_POINT('',(13.0000001937151,-6.75000010430813,85.));
#1121=CARTESIAN_POINT('Origin',(0.,0.,85.));
#1122=CARTESIAN_POINT('',(28.,6.25,85.));
#1123=CARTESIAN_POINT('',(26.,8.25,85.));
#1124=CARTESIAN_POINT('Origin',(26.,6.25,85.));
#1125=CARTESIAN_POINT('',(-26.,8.25,85.));
#1126=CARTESIAN_POINT('',(28.,8.25,85.));
#1127=CARTESIAN_POINT('',(-28.,6.25,85.));
#1128=CARTESIAN_POINT('Origin',(-26.,6.25,85.));
#1129=CARTESIAN_POINT('',(-28.,-6.25,85.));
#1130=CARTESIAN_POINT('',(-28.,8.25,85.));
#1131=CARTESIAN_POINT('Origin',(-26.,-6.25,85.));
#1132=CARTESIAN_POINT('',(28.,-6.25,85.));
#1133=CARTESIAN_POINT('Origin',(26.,-6.25,85.));
#1134=CARTESIAN_POINT('',(28.,-8.25,85.));
#1135=CARTESIAN_POINT('',(-26.0000003874302,-5.75,85.));
#1136=CARTESIAN_POINT('',(-26.0000003874302,6.25,85.));
#1137=CARTESIAN_POINT('',(-26.0000003874302,-7.00000010430813,85.));
#1138=CARTESIAN_POINT('',(-25.,7.25000010430813,85.));
#1139=CARTESIAN_POINT('Origin',(-25.,6.25,85.));
#1140=CARTESIAN_POINT('',(25.,7.25000010430813,85.));
#1141=CARTESIAN_POINT('',(-13.0000001937151,7.25000010430813,85.));
#1142=CARTESIAN_POINT('',(26.,6.25,85.));
#1143=CARTESIAN_POINT('Origin',(25.,6.25,85.));
#1144=CARTESIAN_POINT('',(26.,-5.75,85.));
#1145=CARTESIAN_POINT('',(26.,-3.25000005215406,85.));
#1146=CARTESIAN_POINT('Origin',(25.,-5.75,85.));
#1147=CARTESIAN_POINT('Origin',(-25.,-5.75,85.));
#1148=CARTESIAN_POINT('Origin',(26.,6.25,0.));
#1149=CARTESIAN_POINT('',(28.,6.25,0.));
#1150=CARTESIAN_POINT('',(26.,8.25,0.));
#1151=CARTESIAN_POINT('Origin',(28.,8.25,0.));
#1152=CARTESIAN_POINT('',(28.,-6.25,0.));
#1153=CARTESIAN_POINT('Origin',(-26.,6.25,0.));
#1154=CARTESIAN_POINT('',(-26.,8.25,0.));
#1155=CARTESIAN_POINT('',(-28.,6.25,0.));
#1156=CARTESIAN_POINT('Origin',(-28.,-8.25,0.));
#1157=CARTESIAN_POINT('',(-28.,-6.25,0.));
#1158=CARTESIAN_POINT('Origin',(-26.,-6.25,0.));
#1159=CARTESIAN_POINT('Origin',(26.,-6.25,0.));
#1160=CARTESIAN_POINT('Origin',(-25.,6.25,0.));
#1161=CARTESIAN_POINT('',(-25.,7.25,0.));
#1162=CARTESIAN_POINT('',(-26.,6.25,0.));
#1163=CARTESIAN_POINT('Origin',(-26.,2.25,0.));
#1164=CARTESIAN_POINT('',(-26.,-5.75,0.));
#1165=CARTESIAN_POINT('',(-26.,1.25,0.));
#1166=CARTESIAN_POINT('Origin',(25.,6.25,0.));
#1167=CARTESIAN_POINT('',(26.,6.25,0.));
#1168=CARTESIAN_POINT('',(25.,7.25,0.));
#1169=CARTESIAN_POINT('Origin',(21.5,7.25,0.));
#1170=CARTESIAN_POINT('',(-20.5,7.25,0.));
#1171=CARTESIAN_POINT('Origin',(25.,-5.75,0.));
#1172=CARTESIAN_POINT('',(26.,-5.75,0.));
#1173=CARTESIAN_POINT('Origin',(-25.,-5.75,0.));
#1174=CARTESIAN_POINT('Origin',(-25.,1.25,0.));
#1175=CARTESIAN_POINT('',(-25.,2.25,0.));
#1176=CARTESIAN_POINT('Origin',(25.,1.25,0.));
#1177=CARTESIAN_POINT('',(25.,2.25,0.));
#1178=CARTESIAN_POINT('',(26.,1.25,0.));
#1179=CARTESIAN_POINT('Origin',(26.,2.25,0.));
#1180=CARTESIAN_POINT('Origin',(-20.5,6.25,0.));
#1181=CARTESIAN_POINT('',(-21.5,6.25,0.));
#1182=CARTESIAN_POINT('Origin',(-21.5,7.25,0.));
#1183=CARTESIAN_POINT('',(-21.5,4.75,0.));
#1184=CARTESIAN_POINT('Origin',(26.,-6.75,0.));
#1185=CARTESIAN_POINT('Origin',(-24.,4.75,0.));
#1186=CARTESIAN_POINT('',(-25.4,4.75,0.));
#1187=CARTESIAN_POINT('Origin',(-24.,2.25,0.));
#1188=CARTESIAN_POINT('',(-24.,2.25,0.));
#1189=CARTESIAN_POINT('Origin',(-24.,4.75,0.));
#1190=CARTESIAN_POINT('Origin',(24.,4.75,0.));
#1191=CARTESIAN_POINT('',(22.6,4.75,0.));
#1192=CARTESIAN_POINT('Origin',(-28.,8.25,0.));
#1193=UNCERTAINTY_MEASURE_WITH_UNIT(LENGTH_MEASURE(0.01),#1197,
'DISTANCE_ACCURACY_VALUE',
'Maximum model space distance between geometric entities at asserted c
onnectivities');
#1194=UNCERTAINTY_MEASURE_WITH_UNIT(LENGTH_MEASURE(0.01),#1197,
'DISTANCE_ACCURACY_VALUE',
'Maximum model space distance between geometric entities at asserted c
onnectivities');
#1195=(
GEOMETRIC_REPRESENTATION_CONTEXT(3)
GLOBAL_UNCERTAINTY_ASSIGNED_CONTEXT((#1193))
GLOBAL_UNIT_ASSIGNED_CONTEXT((#1197,#1199,#1200))
REPRESENTATION_CONTEXT('','3D')
);
#1196=(
GEOMETRIC_REPRESENTATION_CONTEXT(3)
GLOBAL_UNCERTAINTY_ASSIGNED_CONTEXT((#1194))
GLOBAL_UNIT_ASSIGNED_CONTEXT((#1197,#1199,#1200))
REPRESENTATION_CONTEXT('','3D')
);
#1197=(
LENGTH_UNIT()
NAMED_UNIT(*)
SI_UNIT(.MILLI.,.METRE.)
);
#1198=(
LENGTH_UNIT()
NAMED_UNIT(*)
SI_UNIT($,.METRE.)
);
#1199=(
NAMED_UNIT(*)
PLANE_ANGLE_UNIT()
SI_UNIT($,.RADIAN.)
);
#1200=(
NAMED_UNIT(*)
SI_UNIT($,.STERADIAN.)
SOLID_ANGLE_UNIT()
);
#1201=SHAPE_DEFINITION_REPRESENTATION(#1202,#1203);
#1202=PRODUCT_DEFINITION_SHAPE('',$,#1205);
#1203=SHAPE_REPRESENTATION('',(#705),#1195);
#1204=PRODUCT_DEFINITION_CONTEXT('part definition',#1209,'design');
#1205=PRODUCT_DEFINITION('Tesla A2 FAN','Tesla A2 FAN v2',#1206,#1204);
#1206=PRODUCT_DEFINITION_FORMATION('',$,#1211);
#1207=PRODUCT_RELATED_PRODUCT_CATEGORY('Tesla A2 FAN v2',
'Tesla A2 FAN v2',(#1211));
#1208=APPLICATION_PROTOCOL_DEFINITION('international standard',
'automotive_design',2009,#1209);
#1209=APPLICATION_CONTEXT(
'Core Data for Automotive Mechanical Design Process');
#1210=PRODUCT_CONTEXT('part definition',#1209,'mechanical');
#1211=PRODUCT('Tesla A2 FAN','Tesla A2 FAN v2',$,(#1210));
#1212=PRESENTATION_STYLE_ASSIGNMENT((#1213));
#1213=SURFACE_STYLE_USAGE(.BOTH.,#1214);
#1214=SURFACE_SIDE_STYLE('',(#1215));
#1215=SURFACE_STYLE_FILL_AREA(#1216);
#1216=FILL_AREA_STYLE('Steel - Satin',(#1217));
#1217=FILL_AREA_STYLE_COLOUR('Steel - Satin',#1218);
#1218=COLOUR_RGB('Steel - Satin',0.627450980392157,0.627450980392157,0.627450980392157);
ENDSEC;
END-ISO-10303-21;
